<?xml version="1.0" encoding="UTF-8" standalone="no"?>
<!-- Generator: Adobe Illustrator 24.2.3, SVG Export Plug-In . SVG Version: 6.00 Build 0)  -->

<svg
   version="1.1"
   x="0px"
   y="0px"
   viewBox="0 0 379.39998 379.4"
   xml:space="preserve"
   id="svg4841"
   sodipodi:docname="LATAMLOGISTICSLOGO_080623_Mesa de trabajo 1 copia.svg"
   width="379.39999"
   height="379.39999"
   inkscape:version="1.2.2 (732a01da63, 2022-12-09)"
   xmlns:inkscape="http://www.inkscape.org/namespaces/inkscape"
   xmlns:sodipodi="http://sodipodi.sourceforge.net/DTD/sodipodi-0.dtd"
   xmlns="http://www.w3.org/2000/svg"
   xmlns:svg="http://www.w3.org/2000/svg"><defs
   id="defs4845" /><sodipodi:namedview
   id="namedview4843"
   pagecolor="#ffffff"
   bordercolor="#000000"
   borderopacity="0.25"
   inkscape:showpageshadow="2"
   inkscape:pageopacity="0.0"
   inkscape:pagecheckerboard="0"
   inkscape:deskcolor="#d1d1d1"
   showgrid="false"
   inkscape:zoom="0.67528978"
   inkscape:cx="48.127487"
   inkscape:cy="345.77748"
   inkscape:window-width="1920"
   inkscape:window-height="991"
   inkscape:window-x="-9"
   inkscape:window-y="-9"
   inkscape:window-maximized="1"
   inkscape:current-layer="INA" />
<style
   type="text/css"
   id="style2">
	.st0{display:none;}
	.st1{display:inline;fill:#E94E1B;}
	.st2{fill:#0A0A0A;}
	.st3{fill:#171716;}
	.st4{fill:#131312;}
	.st5{fill:#121212;}
	.st6{fill:#1B1B1A;}
	.st7{fill:#1C1C1B;}
	.st8{fill:#1D1D1C;}
	.st9{fill:#262525;}
	.st10{fill:#232322;}
	.st11{fill:#141414;}
	.st12{fill:#2F2F2E;}
	.st13{fill:#171717;}
	.st14{fill:#313130;}
	.st15{fill:#353534;}
	.st16{fill:#333332;}
	.st17{fill:#1B1B1B;}
	.st18{fill:#212120;}
	.st19{fill:#161616;}
	.st20{fill:#232323;}
	.st21{fill:#1A1A19;}
	.st22{fill:#3A3A39;}
	.st23{fill:#838282;}
	.st24{fill:#C8C8C8;}
	.st25{fill:#343433;}
	.st26{fill:#1C1C1C;}
	.st27{fill:#D0D0CF;}
	.st28{fill:#1E1D1D;}
	.st29{fill:#181818;}
	.st30{fill:#2E2D2D;}
	.st31{fill:#212121;}
	.st32{fill:#F9F9F9;}
	.st33{fill:#1C1B1B;}
	.st34{fill:#202020;}
	.st35{fill:#1B1A1A;}
	.st36{fill:#191918;}
	.st37{fill:#20201F;}
	.st38{fill:#181817;}
	.st39{fill:#ACACAC;}
	.st40{fill:#1A1A1A;}
	.st41{fill:#1D1D1D;}
	.st42{fill:#212020;}
	.st43{fill:#191919;}
	.st44{fill:#C3C3C2;}
	.st45{fill:#979696;}
	.st46{fill:#767676;}
	.st47{fill:#ADADAD;}
	.st48{fill:#CFCFCF;}
	.st49{fill:#1F1F1F;}
	.st50{fill:#272626;}
	.st51{fill:#232222;}
	.st52{fill:#B7B7B7;}
	.st53{fill:#30302F;}
	.st54{fill:#DFDFDF;}
	.st55{fill:#757574;}
	.st56{fill:#1E1E1D;}
	.st57{fill:#5D5D5C;}
	.st58{fill:#252524;}
	.st59{fill:#585857;}
	.st60{fill:#323231;}
	.st61{fill:#1F1F1E;}
	.st62{fill:#696968;}
	.st63{fill:#282827;}
	.st64{fill:#292928;}
	.st65{fill:#555554;}
	.st66{fill:#B5B5B4;}
	.st67{fill:#6C6C6B;}
	.st68{fill:#DCDCDB;}
	.st69{fill:#8E8E8D;}
	.st70{fill:#C4C3C3;}
	.st71{fill:#1D1C1C;}
	.st72{fill:#242323;}
	.st73{fill:#E4E4E4;}
	.st74{fill:#242423;}
	.st75{fill:#4D4D4C;}
	.st76{fill:#7C7C7B;}
	.st77{fill:#999898;}
	.st78{fill:#626261;}
	.st79{fill:#3B3B3A;}
	.st80{fill:#262625;}
	.st81{fill:#D1D1D1;}
	.st82{fill:#B8B8B7;}
	.st83{fill:#292828;}
	.st84{fill:#CECECE;}
	.st85{fill:#6D6C6C;}
	.st86{fill:#939393;}
	.st87{fill:#808080;}
	.st88{fill:#373736;}
	.st89{fill:#3C3C3B;}
	.st90{fill:#EAEAEA;}
	.st91{fill:#787777;}
	.st92{fill:#525251;}
	.st93{fill:#2A2A29;}
	.st94{fill:#2C2C2B;}
	.st95{fill:#3B3A39;}
	.st96{fill:#E3E3E3;}
	.st97{fill:#40403F;}
	.st98{fill:#7E7E7E;}
	.st99{fill:#302F2E;}
	.st100{fill:#8C8C8B;}
	.st101{fill:#2F2E2E;}
	.st102{fill:#2D2D2C;}
	.st103{fill:#383737;}
	.st104{fill:#434242;}
	.st105{fill:#A5A5A4;}
	.st106{fill:#434342;}
	.st107{fill:#A6A6A6;}
	.st108{fill:#515150;}
	.st109{fill:#595858;}
	.st110{fill:#EDEDED;}
	.st111{fill:#717070;}
	.st112{fill:#5E5E5D;}
	.st113{fill:#111010;}
	.st114{fill:#262626;}
	.st115{fill:#222221;}
	.st116{fill:#272726;}
	.st117{fill:#272727;}
	.st118{fill:#2C2B2B;}
	.st119{fill:#292929;}
	.st120{fill:#2E2E2D;}
	.st121{fill:#363635;}
	.st122{fill:#302F2F;}
	.st123{fill:#3E3E3D;}
	.st124{fill:#FCFCFC;}
	.st125{fill:#FFFFFF;}
	.st126{fill:#FEFEFE;}
	.st127{fill:#D2D2D1;}
	.st128{fill:#F1F1F1;}
	.st129{fill:#E5E5E5;}
	.st130{fill:#DDDDDD;}
	.st131{fill:#C3C3C3;}
	.st132{fill:#D5D5D5;}
	.st133{fill:#E2E2E2;}
	.st134{fill:#FBFBFB;}
	.st135{fill:#9D9D9D;}
	.st136{fill:#F3F3F3;}
	.st137{fill:#807F7F;}
	.st138{fill:#C5C5C5;}
	.st139{fill:#2B2B2B;}
	.st140{fill:#2B2B2A;}
	.st141{fill:#464645;}
	.st142{fill:#0C0C0C;}
	.st143{fill:#414040;}
	.st144{fill:#3F3E3E;}
	.st145{fill:#3D3D3C;}
	.st146{fill:#474746;}
	.st147{fill:#424140;}
	.st148{fill:#454544;}
	.st149{fill:#545453;}
	.st150{fill:#454443;}
	.st151{fill:#515050;}
	.st152{fill:#767675;}
	.st153{fill:#575655;}
	.st154{fill:#565655;}
	.st155{fill:#ABABAB;}
	.st156{fill:#F7F7F7;}
	.st157{fill:#C7C7C6;}
	.st158{fill:#6B6B6A;}
	.st159{fill:#6F6F6E;}
	.st160{fill:#5B5A5A;}
	.st161{fill:#888887;}
	.st162{fill:#757575;}
	.st163{fill:#D2D2D2;}
	.st164{fill:#C1C1C1;}
	.st165{fill:#CACACA;}
	.st166{fill:#DEDEDE;}
	.st167{fill:#D6D6D6;}
	.st168{fill:#F0F0F0;}
	.st169{fill:#4D4C4B;}
	.st170{fill:#E0E0E0;}
	.st171{fill:#4D4C4C;}
	.st172{fill:#5F5F5E;}
	.st173{fill:#BDBCBC;}
	.st174{fill:#AEAEAD;}
	.st175{fill:#BDBDBD;}
	.st176{fill:#393938;}
	.st177{fill:#7A7A7A;}
	.st178{fill:#797878;}
	.st179{fill:#676666;}
	.st180{fill:#919190;}
	.st181{fill:#A4A4A4;}
	.st182{fill:#6E6E6D;}
	.st183{fill:#6D6D6C;}
	.st184{fill:#636362;}
	.st185{fill:#BEBDBD;}
	.st186{fill:#999998;}
	.st187{fill:#BEBEBE;}
	.st188{fill:#D7D7D7;}
	.st189{fill:#777676;}
	.st190{fill:#A9A9A9;}
	.st191{fill:#5B5B5A;}
	.st192{fill:#FDFDFD;}
	.st193{fill:#EBEBEB;}
	.st194{fill:#9A9A9A;}
	.st195{fill:#878786;}
	.st196{fill:#787877;}
	.st197{fill:#797978;}
	.st198{fill:#727271;}
	.st199{fill:#838382;}
	.st200{fill:#666665;}
	.st201{fill:#C5C4C4;}
	.st202{fill:#9C9B9B;}
	.st203{fill:#9A9A99;}
	.st204{fill:#575756;}
	.st205{fill:#B2B2B2;}
	.st206{fill:#FAFAFA;}
	.st207{fill:#DADADA;}
	.st208{fill:#D8D8D8;}
	.st209{fill:#909090;}
	.st210{fill:#F6F6F6;}
	.st211{fill:#ABABAA;}
	.st212{fill:#848483;}
	.st213{fill:#868585;}
	.st214{fill:#959595;}
	.st215{fill:#E9E9E9;}
	.st216{fill:#F2F2F1;}
	.st217{fill:#E6E6E6;}
	.st218{fill:#B1B1B1;}
	.st219{fill:#ECECEC;}
	.st220{fill:#C4C4C4;}
	.st221{fill:#EDEDEC;}
	.st222{fill:#D0D0D0;}
	.st223{fill:#DCDBDB;}
	.st224{fill:#E1E1E1;}
	.st225{fill:#E1E0E0;}
	.st226{fill:#E7E7E7;}
	.st227{fill:#DCDCDC;}
	.st228{fill:#F6F5F5;}
	.st229{fill:#F5F5F5;}
	.st230{fill:#EEEEEE;}
	.st231{fill:#E8E8E8;}
	.st232{fill:#C6C5C5;}
	.st233{fill:#E2E2E1;}
	.st234{fill:#CFCFCE;}
	.st235{fill:#DBDBDB;}
	.st236{fill:#8F8E8E;}
	.st237{fill:#989897;}
	.st238{fill:#B0B0AF;}
	.st239{fill:#4B4B4A;}
	.st240{fill:#464545;}
	.st241{fill:#616160;}
	.st242{fill:#50504F;}
	.st243{fill:#707070;}
	.st244{fill:#747373;}
	.st245{fill:#4A4A49;}
	.st246{fill:#4C4C4B;}
	.st247{fill:#403F3F;}
	.st248{fill:#4E4E4D;}
	.st249{fill:#979796;}
	.st250{fill:#777776;}
	.st251{fill:#A1A1A1;}
	.st252{fill:#616060;}
	.st253{fill:#C0BFBF;}
	.st254{fill:#868685;}
	.st255{fill:#BDBDBC;}
	.st256{fill:#A3A3A2;}
	.st257{fill:#C4C4C3;}
	.st258{fill:#666565;}
	.st259{fill:#7D7C7C;}
	.st260{fill:#7A7A79;}
	.st261{fill:#717170;}
	.st262{fill:#C5C5C4;}
	.st263{fill:#565555;}
	.st264{fill:#6F6E6E;}
	.st265{fill:#B7B7B6;}
	.st266{fill:#929292;}
	.st267{fill:#EFEFEF;}
	.st268{fill:#727272;}
	.st269{fill:#504F4F;}
	.st270{fill:#4C4B4B;}
	.st271{fill:#7F7F7E;}
	.st272{fill:#636262;}
	.st273{fill:#8C8B8B;}
	.st274{fill:#8D8C8C;}
	.st275{fill:#656564;}
	.st276{fill:#B6B6B5;}
	.st277{fill:#A5A5A5;}
	.st278{fill:#595958;}
	.st279{fill:#9E9E9E;}
	.st280{fill:#6E6D6D;}
	.st281{fill:#646463;}
	.st282{fill:#AAAAA9;}
	.st283{fill:#DDDCDC;}
	.st284{fill:#F4F4F4;}
	.st285{fill:#F8F8F8;}
	.st286{fill:#A0A0A0;}
	.st287{fill:#B4B4B4;}
	.st288{fill:#717171;}
	.st289{fill:#CBCBCB;}
	.st290{fill:#BEBEBD;}
	.st291{fill:#BBBBBA;}
	.st292{fill:#9E9D9D;}
	.st293{fill:#A7A6A6;}
	.st294{fill:#BABAB9;}
	.st295{fill:#D5D4D4;}
	.st296{fill:#C9C9C8;}
	.st297{fill:#C9C8C8;}
	.st298{fill:#BBBBBB;}
	.st299{fill:#B7B6B6;}
	.st300{fill:#959594;}
	.st301{fill:#A3A3A3;}
	.st302{fill:#4E4D4D;}
	.st303{fill:#5E5D5D;}
	.st304{fill:#4F4E4D;}
	.st305{fill:#585757;}
	.st306{fill:#4C4B4A;}
	.st307{fill:#C0C0BF;}
	.st308{fill:#A2A1A1;}
	.st309{fill:#A7A7A6;}
	.st310{fill:#A2A2A1;}
	.st311{fill:#878787;}
	.st312{fill:#B0B0B0;}
	.st313{fill:#A2A2A2;}
	.st314{fill:#908F8F;}
	.st315{fill:#ECECEB;}
	.st316{fill:#605F5F;}
	.st317{fill:#676766;}
	.st318{fill:#D6D6D5;}
	.st319{fill:#CACAC9;}
	.st320{fill:#656464;}
	.st321{fill:#646363;}
	.st322{fill:#848484;}
	.st323{fill:#969695;}
	.st324{fill:#80807F;}
	.st325{fill:#818180;}
	.st326{fill:#5F5E5E;}
	.st327{fill:#868686;}
	.st328{fill:#737372;}
	.st329{fill:#7B7B7A;}
	.st330{fill:#7E7D7D;}
	.st331{fill:#7A7979;}
	.st332{fill:#828281;}
	.st333{fill:#858585;}
	.st334{fill:#70706F;}
	.st335{fill:#5A5A59;}
	.st336{fill:#8E8D8D;}
	.st337{fill:#5D5C5C;}
	.st338{fill:#383837;}
	.st339{fill:#4E4D4C;}
	.st340{fill:#F2F2F2;}
	.st341{fill:#949393;}
	.st342{fill:#DEDDDD;}
	.st343{fill:#C2C2C2;}
	.st344{fill:#B1B0B0;}
	.st345{fill:#B8B8B8;}
	.st346{fill:#6B6A6A;}
	.st347{fill:#3E3D3D;}
	.st348{fill:#9F9F9E;}
	.st349{fill:#B5B5B5;}
	.st350{fill:#979797;}
	.st351{fill:#929291;}
	.st352{fill:#AFAFAF;}
	.st353{fill:#878686;}
	.st354{fill:#B9B9B8;}
	.st355{fill:#8A8A89;}
	.st356{fill:#B4B4B3;}
	.st357{fill:#B9B9B9;}
	.st358{fill:#9A9999;}
	.st359{fill:#AEAEAE;}
	.st360{fill:#AAAAAA;}
	.st361{fill:#A4A4A3;}
	.st362{fill:#7F7E7E;}
	.st363{fill:#777777;}
	.st364{fill:#898988;}
	.st365{fill:#494848;}
	.st366{fill:#A6A6A5;}
	.st367{fill:#6A6A69;}
	.st368{fill:#999999;}
	.st369{fill:#989797;}
	.st370{fill:#90908F;}
	.st371{fill:#949494;}
	.st372{fill:#A6A5A5;}
	.st373{fill:#8D8D8D;}
	.st374{fill:#9E9E9D;}
	.st375{fill:#8B8B8A;}
	.st376{fill:#9B9B9A;}
	.st377{fill:#8F8F8F;}
	.st378{fill:#CDCDCD;}
	.st379{fill:#CECECD;}
	.st380{fill:#D7D6D6;}
	.st381{fill:#D4D4D3;}
	.st382{fill:#9F9F9F;}
	.st383{fill:#ACACAB;}
	.st384{fill:#B6B6B6;}
	.st385{fill:#6A6969;}
	.st386{fill:#828181;}
	.st387{fill:#494948;}
	.st388{fill:#555453;}
	.st389{fill:#7E7E7D;}
	.st390{fill:#C0C0C0;}
	.st391{fill:#919191;}
	.st392{fill:#4F4F4E;}
	.st393{fill:#B3B3B3;}
	.st394{fill:#8F8F8E;}
	.st395{fill:#959494;}
	.st396{fill:#858484;}
	.st397{fill:#626161;}
	.st398{fill:#ABAAAA;}
	.st399{fill:#919090;}
	.st400{fill:#6C6C6C;}
	.st401{fill:#888888;}
	.st402{fill:#A7A7A7;}
	.st403{fill:#A8A7A7;}
	.st404{fill:#D4D4D4;}
	.st405{fill:#6C6B6B;}
	.st406{fill:#686867;}
	.st407{fill:#252424;}
	.st408{fill:#C9C9C9;}
	.st409{fill:#757474;}
	.st410{fill:#C7C7C7;}
	.st411{fill:#0D0D0D;}
	.st412{fill:#393837;}
	.st413{fill:#424241;}
	.st414{fill:#5C5B5B;}
	.st415{fill:#D1D1D0;}
	.st416{fill:#B9B8B8;}
	.st417{fill:#ADADAC;}
	.st418{fill:#AFAFAE;}
	.st419{fill:#D9D9D8;}
	.st420{fill:#CAC9C9;}
	.st421{fill:#848383;}
	.st422{fill:#D9D9D9;}
	.st423{fill:#737272;}
	.st424{fill:#CCCCCC;}
	.st425{fill:#D2D1D1;}
	.st426{fill:#EBEBEA;}
	.st427{fill:#F4F4F3;}
	.st428{fill:#E6E5E5;}
	.st429{fill:#7C7C7C;}
</style>
<g
   id="FONS"
   class="st0"
   transform="translate(-231.3,-108)">
</g>
<g
   id="CONTINGUT"
   transform="translate(-231.3,-108)">
</g>
<g
   id="INA"
   transform="translate(-231.3,-108)">
	
	<g
   id="g4838">
		<path
   d="m 325,322.7 c -3.3,0 -6.1,1.2 -8.4,3.5 -2.3,2.4 -3.4,5.2 -3.4,8.6 0,3.4 1.1,6.2 3.4,8.6 2.3,2.4 5.1,3.5 8.4,3.5 3.3,0 6.1,-1.2 8.4,-3.5 2.3,-2.4 3.4,-5.2 3.4,-8.6 0,-3.4 -1.1,-6.2 -3.4,-8.6 -2.3,-2.4 -5.1,-3.5 -8.4,-3.5 z"
   id="path4830" />
		<polygon
   points="462.7,261 457.5,274.4 467.9,274.4 "
   id="polygon4832" />
		<polygon
   points="356.4,261 351.2,274.4 361.6,274.4 "
   id="polygon4834" />
		<path
   d="M 231.3,108 V 487.4 H 610.7 V 108 Z m 47.9,135.2 h 18 v 39.5 h 24.2 v 14 h -42.2 z m 20.9,108.5 h -20.8 v -33.3 h 5.6 v 28 h 15.2 z m 37.4,-4.6 c -3.4,3.3 -7.5,4.9 -12.5,4.9 -5,0 -9.1,-1.6 -12.5,-4.9 -3.4,-3.3 -5.1,-7.4 -5.1,-12.3 0,-4.9 1.7,-9 5.1,-12.3 3.4,-3.3 7.5,-4.9 12.5,-4.9 5,0 9.1,1.6 12.5,4.9 3.4,3.3 5.1,7.4 5.1,12.3 -0.1,4.9 -1.7,9 -5.1,12.3 z m 45.2,-0.3 c -3.1,3.5 -7.6,5.2 -13.5,5.2 -4.9,0 -9.1,-1.6 -12.4,-4.9 -3.3,-3.2 -5,-7.3 -5,-12.3 0,-5 1.7,-9.1 5.1,-12.4 3.4,-3.3 7.5,-5 12.3,-5 4.8,0 8.8,1.4 12,4.2 l -3,4.3 c -1.3,-1.1 -2.6,-1.9 -3.9,-2.3 -1.3,-0.4 -2.9,-0.6 -4.6,-0.6 -3.4,0 -6.2,1.1 -8.5,3.3 -2.3,2.2 -3.4,5 -3.4,8.6 0,3.5 1.1,6.4 3.3,8.5 2.2,2.1 4.9,3.2 8.1,3.2 3.2,0 5.8,-0.7 7.9,-2.1 v -9.2 h 5.6 z m -12.6,-50 -3.6,-9.3 h -20.3 l -3.6,9.3 h -18.4 l 23.4,-53.5 h 17.7 l 23.4,53.5 z m 30,54.9 h -5.6 v -33.3 h 5.6 z M 385,257.2 v -14 h 49.4 v 14 h -15.7 v 39.5 h -18 v -39.5 z m 48.4,92.1 c -2.2,1.8 -5.1,2.7 -8.6,2.7 -5.2,0 -9.8,-1.8 -13.9,-5.4 l 3.5,-4.2 c 3.4,2.9 6.9,4.4 10.5,4.4 1.8,0 3.3,-0.4 4.3,-1.2 1.1,-0.8 1.6,-1.8 1.6,-3.1 0,-1.3 -0.5,-2.3 -1.5,-3 -1,-0.7 -2.7,-1.4 -5.2,-2 -2.4,-0.6 -4.3,-1.1 -5.6,-1.6 -1.3,-0.5 -2.4,-1.1 -3.4,-1.9 -2,-1.5 -3,-3.8 -3,-6.9 0,-3.1 1.1,-5.5 3.4,-7.1 2.2,-1.7 5,-2.5 8.3,-2.5 2.1,0 4.2,0.4 6.3,1 2.1,0.7 3.9,1.7 5.4,3 l -3,4.2 c -1,-0.9 -2.3,-1.6 -4,-2.2 -1.7,-0.6 -3.3,-0.9 -5,-0.9 -1.6,0 -3,0.3 -4,1 -1,0.7 -1.6,1.7 -1.6,3 0,1.4 0.5,2.4 1.6,3.1 1,0.7 3.3,1.5 6.7,2.3 3.4,0.8 6,2 7.7,3.5 1.7,1.5 2.6,3.7 2.6,6.6 0.2,3 -0.9,5.4 -3.1,7.2 z m 37.3,-25.8 h -10.1 v 28.2 H 455 v -28.2 h -10.1 v -5.2 h 25.8 z m 16.1,28.2 h -5.6 v -33.3 h 5.6 z m -10.3,-54.9 -3.6,-9.3 h -20.3 l -3.6,9.3 H 430.6 L 454,243.3 h 17.7 l 23.4,53.5 z m 31,46.3 c 2.3,2.3 5,3.4 8.1,3.4 1.9,0 3.6,-0.3 5,-1 1.4,-0.7 2.9,-1.7 4.4,-3.1 l 3.6,3.7 c -3.5,3.9 -7.8,5.9 -12.9,5.9 -5,0 -9.2,-1.6 -12.5,-4.9 -3.3,-3.2 -5,-7.3 -5,-12.3 0,-5 1.7,-9.1 5.1,-12.4 3.4,-3.3 7.7,-5 12.8,-5 5.2,0 9.5,1.9 12.9,5.7 l -3.6,3.9 c -1.6,-1.5 -3.1,-2.6 -4.5,-3.2 -1.4,-0.6 -3.1,-0.9 -5,-0.9 -3.4,0 -6.2,1.1 -8.5,3.3 -2.3,2.2 -3.4,5 -3.4,8.3 0.1,3.5 1.3,6.4 3.5,8.6 z M 526.1,292 514.5,273.3 v 23.6 H 498 v -53.5 h 14.8 l 17.4,28.5 17,-28.5 H 562 l 0.2,53.5 H 545.8 L 545.6,272.5 534,292 Z m 33.3,57.3 c -2.2,1.8 -5.1,2.7 -8.6,2.7 -5.2,0 -9.8,-1.8 -13.9,-5.4 l 3.5,-4.2 c 3.4,2.9 6.9,4.4 10.5,4.4 1.8,0 3.2,-0.4 4.3,-1.2 1.1,-0.8 1.6,-1.8 1.6,-3.1 0,-1.3 -0.5,-2.3 -1.5,-3 -1,-0.7 -2.7,-1.4 -5.2,-2 -2.4,-0.6 -4.3,-1.1 -5.6,-1.6 -1.3,-0.5 -2.4,-1.1 -3.4,-1.9 -2,-1.5 -3,-3.8 -3,-6.9 0,-3.1 1.1,-5.5 3.4,-7.1 2.2,-1.7 5,-2.5 8.3,-2.5 2.1,0 4.2,0.4 6.3,1 2.1,0.7 3.9,1.7 5.4,3 l -3,4.2 c -1,-0.9 -2.3,-1.6 -4,-2.2 -1.7,-0.6 -3.3,-0.9 -5,-0.9 -1.6,0 -3,0.3 -4,1 -1,0.7 -1.6,1.7 -1.6,3 0,1.4 0.5,2.4 1.6,3.1 1.1,0.7 3.3,1.5 6.7,2.3 3.4,0.8 6,2 7.7,3.5 1.7,1.5 2.6,3.7 2.6,6.6 0.2,3 -0.9,5.4 -3.1,7.2 z"
   id="path4836" />
	</g>
</g>
</svg>
