<?xml version="1.0" encoding="UTF-8"?>
<!-- Created with Inkscape (http://www.inkscape.org/) -->
<svg width="715.68" height="100" version="1.1" viewBox="0 0 715.68 100" xml:space="preserve" xmlns="http://www.w3.org/2000/svg" xmlns:cc="http://creativecommons.org/ns#" xmlns:dc="http://purl.org/dc/elements/1.1/" xmlns:rdf="http://www.w3.org/1999/02/22-rdf-syntax-ns#"><metadata><rdf:RDF><cc:Work rdf:about=""><dc:format>image/svg+xml</dc:format><dc:type rdf:resource="http://purl.org/dc/dcmitype/StillImage"/><dc:title/></cc:Work></rdf:RDF></metadata><g transform="matrix(1.3333 0 0 -1.3333 -1152.5 872.87)"><g transform="matrix(4.4801 0 0 4.4801 -3002.2 -2016.4)" fill="#fccb38"><path d="m879.3 584.32c-0.352 0-0.685 0.067-0.999 0.2-0.313 0.131-0.587 0.31-0.819 0.536-0.233 0.225-0.417 0.491-0.557 0.791-0.137 0.302-0.207 0.628-0.207 0.98v4.805c0 0.251 0.088 0.465 0.264 0.642 0.176 0.175 0.389 0.264 0.641 0.264 0.239 0 0.449-0.089 0.631-0.264 0.183-0.177 0.274-0.391 0.274-0.642v-4.805c0-0.188 0.072-0.352 0.216-0.49 0.145-0.138 0.311-0.206 0.5-0.206h8.267c0.251 0 0.465-0.088 0.641-0.264 0.175-0.176 0.263-0.391 0.263-0.641 0-0.251-0.088-0.465-0.263-0.64-0.176-0.177-0.39-0.266-0.641-0.266z"/><path d="m875.82 585.87c-0.176 0.176-0.389 0.264-0.64 0.264h-8.268c-0.189 0-0.355 0.068-0.5 0.206-0.144 0.138-0.216 0.302-0.216 0.49v0.699h8.116c0.236 0 0.436 0.088 0.599 0.262 0.166 0.177 0.248 0.391 0.248 0.642s-0.082 0.464-0.248 0.642c-0.163 0.175-0.363 0.263-0.599 0.263h-8.126v0.696c0 0.189 0.072 0.353 0.216 0.49 0.145 0.138 0.312 0.207 0.501 0.207h8.266c0.251 0 0.465 0.088 0.641 0.264s0.263 0.39 0.263 0.64c0 0.252-0.087 0.465-0.263 0.642-0.176 0.176-0.39 0.264-0.641 0.264h-8.21c-0.352 0-0.685-0.067-0.999-0.198-0.315-0.133-0.588-0.311-0.82-0.538-0.232-0.226-0.418-0.49-0.556-0.791-0.138-0.302-0.207-0.627-0.207-0.98v-2.667c0-0.04 6e-3 -0.076 0.01-0.113v-0.424c0-0.352 0.069-0.678 0.208-0.98 0.137-0.3 0.323-0.565 0.556-0.791 0.231-0.226 0.506-0.405 0.819-0.536 0.314-0.133 0.647-0.2 0.999-0.2h8.211c0.251 0 0.464 0.089 0.64 0.265s0.265 0.39 0.265 0.641c0 0.25-0.089 0.465-0.265 0.641"/><path d="m929.2 588.43c0-0.477-0.078-0.958-0.235-1.442-0.158-0.483-0.387-0.924-0.689-1.319-0.3-0.396-0.665-0.72-1.092-0.971s-0.911-0.377-1.451-0.377h-5.554c-0.515 0.026-0.973 0.168-1.375 0.425s-0.745 0.581-1.027 0.97c-0.283 0.39-0.499 0.823-0.651 1.301-0.151 0.476-0.226 0.948-0.226 1.413 0 0.477 0.079 0.958 0.237 1.442 0.156 0.483 0.386 0.923 0.687 1.319s0.666 0.719 1.093 0.97 0.91 0.377 1.45 0.377h5.555c0.515-0.025 0.972-0.167 1.376-0.424 0.402-0.258 0.743-0.581 1.026-0.97 0.283-0.39 0.5-0.824 0.651-1.3 0.15-0.479 0.225-0.949 0.225-1.414m-3.862-2.299c0.426 0 0.778 0.078 1.054 0.235 0.276 0.158 0.494 0.349 0.649 0.575 0.159 0.226 0.265 0.475 0.322 0.743 0.057 0.27 0.085 0.519 0.085 0.746 0 0.226-0.028 0.473-0.085 0.745-0.057 0.269-0.163 0.518-0.322 0.743-0.155 0.226-0.373 0.417-0.649 0.575-0.276 0.157-0.628 0.235-1.054 0.235h-4.575c-0.439 0-0.794-0.078-1.065-0.235-0.269-0.158-0.483-0.349-0.64-0.575-0.157-0.225-0.264-0.474-0.321-0.743-0.056-0.272-0.084-0.519-0.084-0.745 0-0.227 0.028-0.476 0.084-0.746 0.057-0.268 0.164-0.517 0.321-0.743s0.371-0.417 0.64-0.575c0.271-0.157 0.626-0.235 1.065-0.235z"/><path d="m955.58 585.57c-0.051 0.107-0.112 0.204-0.187 0.293l-4.58 6.124c-0.214 0.289-0.49 0.515-0.83 0.679-0.34 0.163-0.696 0.245-1.074 0.245-0.402 0-0.779-0.091-1.131-0.273-0.352-0.183-0.634-0.418-0.847-0.708l-4.58-6.162c-0.125-0.137-0.188-0.32-0.188-0.545 0-0.252 0.087-0.465 0.264-0.642 0.175-0.176 0.389-0.264 0.64-0.264 0.277 0 0.509 0.114 0.698 0.34l1.013 1.345h8.264l0.993-1.326c0.175-0.239 0.415-0.359 0.716-0.359 0.251 0 0.464 0.088 0.642 0.264 0.175 0.177 0.263 0.39 0.263 0.642 0 0.124-0.026 0.241-0.076 0.347m-9.439 2.242 2.052 2.725c0.076 0.099 0.179 0.21 0.311 0.329 0.133 0.119 0.267 0.18 0.405 0.18 0.137 0 0.274-0.061 0.405-0.18 0.133-0.119 0.243-0.23 0.329-0.329l2.043-2.725z"/><path d="m968.6 588.43c0-0.465-0.076-0.937-0.226-1.413-0.151-0.478-0.368-0.911-0.65-1.301-0.283-0.389-0.625-0.713-1.027-0.97s-0.861-0.399-1.376-0.425h-8.135c-0.252 0-0.466 0.088-0.641 0.264-0.176 0.176-0.263 0.39-0.263 0.64v6.408c0 0.251 0.087 0.465 0.263 0.641 0.175 0.177 0.389 0.264 0.641 0.264h7.947c0.54 0 1.024-0.127 1.451-0.378 0.427-0.25 0.791-0.573 1.093-0.969 0.301-0.396 0.531-0.836 0.688-1.319 0.157-0.484 0.235-0.965 0.235-1.442m-10.51 2.298v-4.597h6.647c0.426 0 0.779 0.078 1.054 0.235 0.277 0.158 0.494 0.349 0.651 0.575 0.158 0.226 0.265 0.475 0.321 0.743 0.056 0.27 0.085 0.519 0.085 0.746 0 0.226-0.029 0.473-0.085 0.745-0.056 0.269-0.163 0.518-0.321 0.743-0.157 0.226-0.374 0.418-0.651 0.575-0.275 0.157-0.628 0.235-1.054 0.235z"/><path d="m981.53 588.43c0-0.477-0.079-0.958-0.236-1.442-0.158-0.483-0.387-0.924-0.688-1.319-0.302-0.396-0.666-0.72-1.093-0.971s-0.911-0.377-1.451-0.377h-5.554c-0.515 0.026-0.974 0.168-1.375 0.425-0.403 0.257-0.745 0.581-1.027 0.97-0.283 0.39-0.5 0.823-0.65 1.301-0.151 0.476-0.226 0.948-0.226 1.413 0 0.477 0.077 0.958 0.235 1.442 0.156 0.483 0.386 0.923 0.687 1.319 0.302 0.396 0.667 0.719 1.093 0.97 0.429 0.251 0.912 0.377 1.451 0.377h5.555c0.514-0.025 0.973-0.167 1.375-0.424 0.402-0.258 0.744-0.581 1.027-0.97 0.283-0.39 0.5-0.824 0.65-1.3 0.151-0.479 0.227-0.949 0.227-1.414m-3.864-2.299c0.427 0 0.779 0.078 1.055 0.235 0.277 0.158 0.494 0.349 0.65 0.575 0.158 0.226 0.264 0.475 0.322 0.743 0.056 0.27 0.084 0.519 0.084 0.746 0 0.226-0.028 0.473-0.084 0.745-0.058 0.269-0.164 0.518-0.322 0.743-0.156 0.226-0.373 0.417-0.65 0.575-0.276 0.157-0.628 0.235-1.055 0.235h-4.574c-0.44 0-0.794-0.078-1.064-0.235-0.27-0.158-0.484-0.349-0.64-0.575-0.158-0.225-0.264-0.474-0.321-0.743-0.057-0.272-0.085-0.519-0.085-0.745 0-0.227 0.028-0.476 0.085-0.746 0.057-0.268 0.163-0.517 0.321-0.743 0.156-0.226 0.37-0.417 0.64-0.575 0.27-0.157 0.624-0.235 1.064-0.235z"/><path d="m941.07 585.96-2.853 1.56h0.775c0.351 0 0.681 0.066 0.989 0.197 0.308 0.132 0.578 0.313 0.81 0.537 0.233 0.227 0.416 0.49 0.546 0.793 0.133 0.3 0.198 0.627 0.198 0.978 0 0.352-0.065 0.679-0.198 0.98-0.13 0.302-0.313 0.566-0.546 0.792-0.232 0.225-0.502 0.406-0.81 0.538-0.308 0.131-0.638 0.197-0.989 0.197h-8.249c-0.251 0-0.465-0.089-0.641-0.263-0.176-0.177-0.263-0.391-0.263-0.641v-6.407c0-0.252 0.087-0.465 0.263-0.641s0.39-0.265 0.641-0.265c0.239 0 0.449 0.089 0.632 0.265 0.181 0.176 0.272 0.389 0.272 0.641v2.299h2.847l5.702-3.144c0.205-0.113 0.422-0.134 0.651-0.059 0.229 0.076 0.405 0.223 0.527 0.443 0.121 0.219 0.152 0.446 0.092 0.68-0.058 0.234-0.191 0.406-0.396 0.52m-9.423 4.764h7.421c0.187 0 0.355-0.07 0.499-0.207 0.144-0.14 0.216-0.303 0.216-0.492 0-0.2-0.072-0.366-0.216-0.499-0.144-0.131-0.312-0.198-0.499-0.198h-7.421z"/><path d="m915.81 590.71c-0.313 0.963-0.77 1.84-1.37 2.627-0.602 0.789-1.328 1.434-2.178 1.933-0.85 0.501-1.814 0.752-2.89 0.752h-18.521c-0.456 0-0.846-0.154-1.176-0.443-0.034-0.029-0.069-0.052-0.101-0.083-0.351-0.35-0.526-0.777-0.526-1.276v-4.102l9.609-0.89-2.669 4.915h2.975c0.01 0 0.019 4e-3 0.029 4e-3 9e-3 0 0.019-4e-3 0.028-4e-3 0.302-7e-3 0.575-0.121 0.775-0.304 0.01-8e-3 0.017-0.019 0.028-0.027l4.73-5.132 9.121-0.847-9.126-0.843-4.71-5.072c-0.015-0.015-0.029-0.032-0.046-0.046-0.197-0.179-0.462-0.288-0.756-0.299h-3.053l2.654 4.867-9.589-0.887v-4.098c0-0.49 0.169-0.905 0.504-1.25 8e-3 -9e-3 0.014-0.019 0.022-0.026 0.35-0.351 0.776-0.526 1.277-0.526h18.896c1.026 0.05 1.939 0.33 2.74 0.845 0.801 0.513 1.484 1.158 2.047 1.933 0.563 0.776 0.995 1.639 1.294 2.591 0.301 0.951 0.451 1.889 0.451 2.816 0 0.95-0.156 1.908-0.469 2.872"/></g></g></svg>
