<?xml version="1.0" encoding="UTF-8" standalone="no"?>
<!-- Created with Inkscape (http://www.inkscape.org/) -->

<svg
   width="243.47902mm"
   height="43.513016mm"
   viewBox="0 0 243.47902 43.513016"
   version="1.1"
   id="svg1"
   inkscape:version="1.3.2 (091e20e, 2023-11-25, custom)"
   sodipodi:docname="LogosDisclaimer.svg"
   xmlns:inkscape="http://www.inkscape.org/namespaces/inkscape"
   xmlns:sodipodi="http://sodipodi.sourceforge.net/DTD/sodipodi-0.dtd"
   xmlns="http://www.w3.org/2000/svg"
   xmlns:svg="http://www.w3.org/2000/svg">
  <sodipodi:namedview
     id="namedview1"
     pagecolor="#ffffff"
     bordercolor="#000000"
     borderopacity="0.25"
     inkscape:showpageshadow="2"
     inkscape:pageopacity="0.0"
     inkscape:pagecheckerboard="0"
     inkscape:deskcolor="#d1d1d1"
     inkscape:document-units="mm"
     inkscape:zoom="0.71446409"
     inkscape:cx="305.1238"
     inkscape:cy="305.1238"
     inkscape:window-width="1920"
     inkscape:window-height="991"
     inkscape:window-x="2391"
     inkscape:window-y="-9"
     inkscape:window-maximized="1"
     inkscape:current-layer="layer1" />
  <defs
     id="defs1" />
  <g
     inkscape:label="Capa 1"
     inkscape:groupmode="layer"
     id="layer1"
     transform="translate(-24.606247,-67.733333)">
    <g
       id="g9"
       transform="translate(115.11211,-49.835767)">
      <g
         id="g3"
         transform="matrix(0.28617958,0,0,0.28617958,-185.09641,151.0238)"
         style="fill:#999999">
        <g
           id="g8"
           transform="matrix(0.24057904,0,0,0.24057904,721.39989,-43.459398)">
          <path
             class="cls-2"
             d="M 384.67,179.04 H 250.4 c -3.07,0 -5.77,-1.11 -8.12,-3.36 -2.34,-2.24 -3.52,-4.9 -3.52,-7.96 V 89.68 c 0,-4.09 -1.47,-7.56 -4.44,-10.42 -2.95,-2.85 -6.38,-4.28 -10.25,-4.28 -4.08,0 -7.56,1.43 -10.41,4.28 -2.85,2.86 -4.28,6.34 -4.28,10.42 v 78.04 c 0,5.71 1.13,11.01 3.36,15.92 2.26,4.88 5.26,9.19 9.04,12.84 3.76,3.67 8.21,6.58 13.31,8.72 5.1,2.16 10.51,3.24 16.22,3.24 h 133.36 c 4.07,0 7.54,-1.44 10.4,-4.32 2.86,-2.84 4.28,-6.31 4.28,-10.4 0,-4.09 -1.43,-7.54 -4.28,-10.4 -2.86,-2.87 -6.33,-4.28 -10.4,-4.28 z"
             id="path1"
             style="fill:#ffd244" />
          <path
             class="cls-2"
             d="M 184.47,179.04 H 50.18 c -3.06,0 -5.76,-1.11 -8.11,-3.36 -2.34,-2.24 -3.51,-4.9 -3.51,-7.96 v -11.35 h 131.82 c 3.82,0 7.07,-1.43 9.73,-4.27 2.69,-2.86 4.02,-6.34 4.02,-10.42 0,-4.08 -1.33,-7.54 -4.02,-10.43 -2.66,-2.85 -5.91,-4.27 -9.73,-4.27 H 38.39 v -11.3 c 0,-3.06 1.17,-5.73 3.51,-7.96 2.35,-2.24 5.06,-3.36 8.12,-3.36 h 134.27 c 4.07,0 7.55,-1.43 10.42,-4.29 2.84,-2.85 4.27,-6.34 4.27,-10.39 0,-4.05 -1.43,-7.56 -4.27,-10.42 -2.86,-2.85 -6.34,-4.28 -10.42,-4.28 H 50.94 c -5.71,0 -11.12,1.08 -16.23,3.22 -5.1,2.15 -9.54,5.05 -13.31,8.73 -3.77,3.67 -6.79,7.96 -9.03,12.85 C 10.13,104.68 9,109.97 9,115.7 v 43.32 c 0,0.64 0.11,1.22 0.18,1.82 v 6.89 c 0,5.71 1.11,11.01 3.37,15.92 2.23,4.88 5.24,9.19 9.03,12.84 3.76,3.67 8.22,6.58 13.3,8.72 5.11,2.16 10.51,3.24 16.23,3.24 h 133.36 c 4.07,0 7.53,-1.44 10.39,-4.3 2.86,-2.86 4.29,-6.33 4.29,-10.42 0,-4.09 -1.44,-7.54 -4.29,-10.4 -2.86,-2.87 -6.32,-4.28 -10.39,-4.28 z"
             id="path2"
             style="fill:#ffd244" />
          <path
             class="cls-2"
             d="m 1047.63,97.63 c -4.59,-6.32 -10.14,-11.58 -16.67,-15.75 -6.54,-4.18 -13.97,-6.49 -22.35,-6.9 H 918.4 c -8.77,0 -16.63,2.05 -23.56,6.12 -6.94,4.09 -12.86,9.34 -17.76,15.77 -4.88,6.43 -8.62,13.57 -11.15,21.42 -2.56,7.87 -3.85,15.67 -3.85,23.42 0,7.75 1.22,15.2 3.68,22.95 2.46,7.76 5.97,14.8 10.57,21.13 4.58,6.31 10.14,11.57 16.67,15.76 6.54,4.17 13.97,6.49 22.34,6.9 h 90.21 c 8.76,0 16.62,-2.04 23.57,-6.13 6.93,-4.07 12.86,-9.34 17.74,-15.77 4.9,-6.41 8.63,-13.57 11.19,-21.42 2.54,-7.85 3.81,-15.67 3.81,-23.42 0,-7.75 -1.21,-15.19 -3.66,-22.96 -2.46,-7.73 -5.98,-14.78 -10.57,-21.12 z m -15.6,56.19 c -0.93,4.35 -2.66,8.4 -5.23,12.07 -2.53,3.67 -6.06,6.78 -10.54,9.34 -4.49,2.54 -10.2,3.82 -17.13,3.82 h -74.3 c -7.14,0 -12.89,-1.27 -17.29,-3.82 -4.38,-2.56 -7.84,-5.67 -10.4,-9.34 -2.54,-3.67 -4.28,-7.72 -5.21,-12.07 -0.91,-4.39 -1.37,-8.43 -1.37,-12.11 0,-3.68 0.46,-7.69 1.37,-12.09 0.92,-4.38 2.66,-8.42 5.21,-12.08 2.56,-3.67 6.02,-6.76 10.4,-9.34 4.4,-2.55 10.16,-3.82 17.29,-3.82 h 74.3 c 6.93,0 12.64,1.27 17.13,3.82 4.49,2.58 8.01,5.68 10.54,9.34 2.57,3.67 4.3,7.7 5.23,12.08 0.92,4.4 1.37,8.43 1.37,12.09 0,3.66 -0.46,7.72 -1.37,12.11 z"
             id="path3"
             style="fill:#ffd244" />
          <path
             class="cls-2"
             d="m 1487.15,183.33 -74.37,-99.47 c -3.48,-4.69 -7.96,-8.35 -13.48,-11.01 -5.52,-2.65 -11.32,-3.99 -17.45,-3.99 -6.54,0 -12.66,1.49 -18.37,4.45 -5.72,2.97 -10.3,6.78 -13.77,11.49 l -74.37,100.09 c -2.04,2.23 -3.07,5.2 -3.07,8.85 0,4.09 1.42,7.56 4.29,10.42 2.85,2.87 6.32,4.3 10.41,4.3 4.49,0 8.26,-1.85 11.33,-5.53 l 16.44,-21.83 h 134.23 l 16.13,21.53 c 2.85,3.88 6.74,5.83 11.63,5.83 4.08,0 7.54,-1.43 10.42,-4.3 2.85,-2.86 4.28,-6.33 4.28,-10.42 0,-2.02 -0.42,-3.91 -1.23,-5.64 -0.82,-1.74 -1.82,-3.31 -3.05,-4.76 z m -150.27,-31.65 33.34,-44.27 c 1.23,-1.6 2.91,-3.41 5.05,-5.35 2.15,-1.93 4.34,-2.91 6.58,-2.91 2.24,0 4.44,0.98 6.57,2.91 2.16,1.94 3.94,3.75 5.36,5.35 l 33.17,44.27 z"
             id="path4"
             style="fill:#ffd244" />
          <path
             class="cls-2"
             d="m 1686.74,96.87 c -4.91,-6.43 -10.83,-11.68 -17.76,-15.74 -6.94,-4.09 -14.79,-6.15 -23.56,-6.15 h -129.08 c -4.09,0 -7.57,1.42 -10.42,4.28 -2.85,2.86 -4.27,6.34 -4.27,10.42 v 104.07 c 0,4.06 1.42,7.54 4.27,10.39 2.85,2.86 6.33,4.3 10.42,4.3 h 132.12 c 8.37,-0.41 15.82,-2.73 22.35,-6.9 6.54,-4.19 12.09,-9.44 16.68,-15.76 4.59,-6.33 8.12,-13.37 10.56,-21.13 2.44,-7.74 3.67,-15.4 3.67,-22.95 0,-7.55 -1.26,-15.56 -3.81,-23.42 -2.56,-7.85 -6.29,-14.99 -11.17,-21.42 z m -14.85,56.95 c -0.92,4.35 -2.66,8.4 -5.21,12.07 -2.56,3.67 -6.07,6.78 -10.57,9.34 -4.47,2.54 -10.2,3.82 -17.12,3.82 h -107.97 v -74.67 h 107.97 c 6.92,0 12.65,1.27 17.12,3.82 4.5,2.56 8.01,5.68 10.57,9.34 2.55,3.67 4.29,7.7 5.21,12.08 0.91,4.4 1.38,8.43 1.38,12.09 0,3.66 -0.47,7.72 -1.38,12.11 z"
             id="path5"
             style="fill:#ffd244" />
          <path
             class="cls-2"
             d="m 1908.03,118.74 c -2.44,-7.73 -5.96,-14.78 -10.56,-21.12 -4.59,-6.32 -10.16,-11.58 -16.69,-15.75 -6.52,-4.18 -13.97,-6.49 -22.33,-6.9 h -90.21 c -8.75,0 -16.61,2.05 -23.56,6.12 -6.93,4.09 -12.85,9.34 -17.76,15.77 -4.88,6.43 -8.61,13.57 -11.15,21.42 -2.56,7.87 -3.82,15.67 -3.82,23.42 0,7.75 1.22,15.2 3.67,22.95 2.44,7.76 5.96,14.8 10.55,21.13 4.59,6.31 10.13,11.57 16.68,15.76 6.53,4.17 13.97,6.49 22.34,6.9 h 90.21 c 8.76,0 16.62,-2.04 23.56,-6.13 6.93,-4.07 12.86,-9.34 17.76,-15.77 4.88,-6.41 8.61,-13.57 11.17,-21.42 2.54,-7.85 3.83,-15.67 3.83,-23.42 0,-7.75 -1.23,-15.19 -3.68,-22.96 z m -26.16,35.07 c -0.93,4.35 -2.66,8.4 -5.22,12.07 -2.54,3.67 -6.06,6.78 -10.56,9.34 -4.49,2.54 -10.2,3.82 -17.14,3.82 h -74.28 c -7.15,0 -12.91,-1.27 -17.29,-3.82 -4.39,-2.56 -7.86,-5.67 -10.4,-9.34 -2.57,-3.67 -4.29,-7.72 -5.22,-12.07 -0.91,-4.39 -1.37,-8.43 -1.37,-12.11 0,-3.68 0.46,-7.69 1.37,-12.09 0.93,-4.38 2.65,-8.42 5.22,-12.08 2.54,-3.67 6.01,-6.76 10.4,-9.34 4.38,-2.55 10.14,-3.82 17.29,-3.82 h 74.28 c 6.94,0 12.65,1.27 17.14,3.82 4.5,2.58 8.01,5.68 10.56,9.34 2.56,3.67 4.29,7.7 5.22,12.08 0.91,4.4 1.36,8.43 1.36,12.09 0,3.66 -0.45,7.72 -1.36,12.11 z"
             id="path6"
             style="fill:#ffd244" />
          <path
             class="cls-2"
             d="m 1236.81,153.3 c 5,-2.14 9.39,-5.07 13.16,-8.71 3.79,-3.69 6.76,-7.96 8.87,-12.88 2.16,-4.87 3.22,-10.18 3.22,-15.89 0,-5.71 -1.06,-11.02 -3.22,-15.92 -2.11,-4.9 -5.09,-9.19 -8.87,-12.86 -3.77,-3.66 -8.16,-6.6 -13.16,-8.74 -5,-2.13 -10.36,-3.2 -16.06,-3.2 h -133.98 c -4.08,0 -7.57,1.44 -10.41,4.28 -2.86,2.86 -4.28,6.34 -4.28,10.4 v 104.06 c 0,4.09 1.43,7.56 4.28,10.41 2.84,2.86 6.33,4.3 10.41,4.3 4.08,0 7.28,-1.45 10.25,-4.3 2.96,-2.86 4.43,-6.33 4.43,-10.41 v -37.33 h 46.25 l 92.61,51.06 c 3.33,1.83 6.85,2.17 10.57,0.95 3.72,-1.22 6.57,-3.6 8.56,-7.18 1.96,-3.56 2.46,-7.25 1.5,-11.05 -0.95,-3.8 -3.11,-6.59 -6.44,-8.44 l -46.32,-25.33 h 12.58 c 5.7,0 11.06,-1.08 16.06,-3.22 z m -135.35,-26.16 v -22.67 h 120.52 c 3.05,0 5.76,1.14 8.1,3.36 2.34,2.28 3.51,4.92 3.51,7.98 0,3.25 -1.17,5.95 -3.51,8.11 -2.34,2.14 -5.06,3.22 -8.1,3.22 z"
             id="path7"
             style="fill:#ffd244" />
          <path
             class="cls-2"
             d="M 821.99,61.97 C 812.21,49.16 800.42,38.69 786.62,30.57 772.8,22.44 757.15,18.36 739.67,18.36 H 438.86 c -7.4,0 -13.73,2.5 -19.09,7.19 -0.55,0.48 -1.12,0.85 -1.65,1.35 -5.69,5.7 -8.53,12.63 -8.53,20.73 v 66.62 L 565.65,128.71 522.3,48.88 h 48.32 c 0.15,0 0.31,-0.06 0.47,-0.06 0.15,0 0.3,0.06 0.46,0.06 4.9,0.11 9.32,1.96 12.58,4.92 0.16,0.14 0.28,0.32 0.45,0.46 l 76.82,83.34 148.14,13.76 -148.21,13.69 -76.51,82.38 c -0.24,0.24 -0.47,0.53 -0.75,0.75 -3.21,2.9 -7.51,4.67 -12.29,4.85 h -49.57 l 43.09,-79.05 -155.73,14.41 v 66.56 c 0,7.95 2.75,14.69 8.19,20.31 0.13,0.14 0.22,0.3 0.35,0.41 5.7,5.7 12.6,8.55 20.74,8.55 h 306.9 c 16.67,-0.82 31.5,-5.37 44.52,-13.73 13,-8.33 24.1,-18.8 33.25,-31.39 9.14,-12.6 16.15,-26.63 21.02,-42.08 4.88,-15.46 7.33,-30.69 7.33,-45.74 0,-15.05 -2.54,-30.99 -7.62,-46.65 C 839.16,88.99 831.74,74.75 822,61.96 Z"
             id="path8"
             style="fill:#ffd244" />
        </g>
      </g>
      <text
         xml:space="preserve"
         style="font-size:16.9194px;line-height:2.9;font-family:Poppins;-inkscape-font-specification:Poppins;text-align:center;letter-spacing:-0.951717px;text-anchor:middle;fill:#ffffff;stroke:#ffffff;stroke-width:0.599507;stroke-dasharray:none;stroke-opacity:1"
         x="-42.592587"
         y="49.564404"
         id="text1"
         transform="translate(-48.918828,51.175006)"><tspan
           sodipodi:role="line"
           id="tspan1"
           style="font-style:normal;font-variant:normal;font-weight:normal;font-stretch:normal;font-family:'Century Gothic';-inkscape-font-specification:'Century Gothic';text-align:start;letter-spacing:-0.951717px;text-anchor:start;fill:#ffffff;stroke:#ffffff;stroke-width:0.599507;stroke-dasharray:none;stroke-opacity:1"
           x="-42.592587"
           y="49.564404"
           dy="33.57238">BOGage  </tspan><tspan
           sodipodi:role="line"
           style="font-style:normal;font-variant:normal;font-weight:normal;font-stretch:normal;font-family:'Century Gothic';-inkscape-font-specification:'Century Gothic';text-align:start;letter-spacing:-0.951717px;text-anchor:start;fill:#ffffff;stroke:#ffffff;stroke-width:0.599507;stroke-dasharray:none;stroke-opacity:1"
           x="-42.592587"
           y="99.186882"
           id="tspan2">planner</tspan></text>
      <path
         style="fill:#333333;fill-opacity:0.7;stroke:#ffffff;stroke-width:0.7;stroke-dasharray:none;stroke-opacity:1"
         d="M 48.328664,66.394094 V 109.90711"
         id="path9"
         transform="translate(-48.918828,51.175006)" />
      <g
         id="g49298"
         transform="matrix(0.26582018,0,0,0.26582018,-16.474007,38.739261)"
         style="fill:#ffffff">
        <g
           id="g49166"
           style="fill:#ffffff">
          <g
             id="g49152"
             style="fill:#ffffff"
             transform="matrix(0.81460907,0,0,0.81460907,174.67318,64.662513)">
            <path
               d="m 279.2,351.7 v -33.3 h 5.6 v 28 H 300 v 5.3 z"
               id="path49134"
               class="MsftOfcThm_Background1_Fill_v2"
               fill="#FFFFFF"
               style="fill:#ffffff" />
            <path
               d="m 337.5,347.1 c -3.4,3.3 -7.5,4.9 -12.5,4.9 -5,0 -9.1,-1.6 -12.5,-4.9 -3.4,-3.3 -5.1,-7.4 -5.1,-12.3 0,-4.9 1.7,-9 5.1,-12.3 3.4,-3.3 7.5,-4.9 12.5,-4.9 5,0 9.1,1.6 12.5,4.9 3.4,3.3 5.1,7.4 5.1,12.3 0,4.9 -1.7,9 -5.1,12.3 z m -4.1,-20.9 c -2.3,-2.4 -5.1,-3.5 -8.4,-3.5 -3.3,0 -6.1,1.2 -8.4,3.5 -2.3,2.4 -3.4,5.2 -3.4,8.6 0,3.4 1.1,6.2 3.4,8.6 2.3,2.4 5.1,3.5 8.4,3.5 3.3,0 6.1,-1.2 8.4,-3.5 2.3,-2.4 3.4,-5.2 3.4,-8.6 0,-3.4 -1.2,-6.3 -3.4,-8.6 z"
               id="path49136"
               class="MsftOfcThm_Background1_Fill_v2"
               fill="#FFFFFF"
               style="fill:#ffffff" />
            <path
               d="m 377.1,335.4 h 5.6 v 11.4 c -3.1,3.5 -7.6,5.2 -13.5,5.2 -4.9,0 -9.1,-1.6 -12.4,-4.9 -3.3,-3.2 -5,-7.3 -5,-12.3 0,-5 1.7,-9.1 5.1,-12.4 3.4,-3.3 7.5,-5 12.3,-5 4.8,0 8.8,1.4 12,4.2 l -3,4.3 c -1.3,-1.1 -2.6,-1.9 -3.9,-2.3 -1.3,-0.4 -2.9,-0.6 -4.6,-0.6 -3.4,0 -6.2,1.1 -8.5,3.3 -2.3,2.2 -3.4,5 -3.4,8.6 0,3.5 1.1,6.4 3.3,8.5 2.2,2.1 4.9,3.2 8.1,3.2 3.2,0 5.8,-0.7 7.9,-2.1 z"
               id="path49138"
               class="MsftOfcThm_Background1_Fill_v2"
               fill="#FFFFFF"
               style="fill:#ffffff" />
            <path
               d="m 394.4,318.3 h 5.6 v 33.3 h -5.6 z"
               id="path49140"
               class="MsftOfcThm_Background1_Fill_v2"
               fill="#FFFFFF"
               style="fill:#ffffff" />
            <path
               d="m 423.7,322.7 c -1.6,0 -3,0.3 -4,1 -1,0.7 -1.6,1.7 -1.6,3 0,1.4 0.5,2.4 1.6,3.1 1,0.7 3.3,1.5 6.7,2.3 3.4,0.8 6,2 7.7,3.5 1.7,1.5 2.6,3.7 2.6,6.6 0,2.9 -1.1,5.3 -3.3,7.1 -2.2,1.8 -5.1,2.7 -8.6,2.7 -5.2,0 -9.8,-1.8 -13.9,-5.4 l 3.5,-4.2 c 3.4,2.9 6.9,4.4 10.5,4.4 1.8,0 3.3,-0.4 4.3,-1.2 1,-0.8 1.6,-1.8 1.6,-3.1 0,-1.3 -0.5,-2.3 -1.5,-3 -1,-0.7 -2.7,-1.4 -5.2,-2 -2.4,-0.6 -4.3,-1.1 -5.6,-1.6 -1.3,-0.5 -2.4,-1.1 -3.4,-1.9 -2,-1.5 -3,-3.8 -3,-6.9 0,-3.1 1.1,-5.5 3.4,-7.1 2.2,-1.7 5,-2.5 8.3,-2.5 2.1,0 4.2,0.4 6.3,1 2.1,0.7 3.9,1.7 5.4,3 l -3,4.2 c -1,-0.9 -2.3,-1.6 -4,-2.2 -1.5,-0.5 -3.1,-0.8 -4.8,-0.8 z"
               id="path49142"
               class="MsftOfcThm_Background1_Fill_v2"
               fill="#FFFFFF"
               style="fill:#ffffff" />
            <path
               d="m 460.6,323.5 v 28.2 H 455 v -28.2 h -10.1 v -5.2 h 25.8 v 5.2 z"
               id="path49144"
               class="MsftOfcThm_Background1_Fill_v2"
               fill="#FFFFFF"
               style="fill:#ffffff" />
            <path
               d="m 481.2,318.3 h 5.6 v 33.3 h -5.6 z"
               id="path49146"
               class="MsftOfcThm_Background1_Fill_v2"
               fill="#FFFFFF"
               style="fill:#ffffff" />
            <path
               d="m 515.6,346.6 c 1.9,0 3.6,-0.3 5,-1 1.4,-0.7 2.9,-1.7 4.4,-3.1 l 3.6,3.7 c -3.5,3.9 -7.8,5.9 -12.9,5.9 -5,0 -9.2,-1.6 -12.5,-4.9 -3.3,-3.2 -5,-7.3 -5,-12.3 0,-5 1.7,-9.1 5.1,-12.4 3.4,-3.3 7.7,-5 12.8,-5 5.2,0 9.5,1.9 12.9,5.7 l -3.6,3.9 c -1.6,-1.5 -3.1,-2.6 -4.5,-3.2 -1.4,-0.6 -3.1,-0.9 -5,-0.9 -3.4,0 -6.2,1.1 -8.5,3.3 -2.3,2.2 -3.4,5 -3.4,8.3 0,3.3 1.1,6.2 3.4,8.5 2.4,2.3 5.1,3.5 8.2,3.5 z"
               id="path49148"
               class="MsftOfcThm_Background1_Fill_v2"
               fill="#FFFFFF"
               style="fill:#ffffff" />
            <path
               d="m 549.7,322.7 c -1.6,0 -3,0.3 -4,1 -1,0.7 -1.6,1.7 -1.6,3 0,1.4 0.5,2.4 1.6,3.1 1,0.7 3.3,1.5 6.7,2.3 3.4,0.8 6,2 7.7,3.5 1.7,1.5 2.6,3.7 2.6,6.6 0,2.9 -1.1,5.3 -3.3,7.1 -2.2,1.8 -5.1,2.7 -8.6,2.7 -5.2,0 -9.8,-1.8 -13.9,-5.4 l 3.5,-4.2 c 3.4,2.9 6.9,4.4 10.5,4.4 1.8,0 3.3,-0.4 4.3,-1.2 1.1,-0.8 1.6,-1.8 1.6,-3.1 0,-1.3 -0.5,-2.3 -1.5,-3 -1,-0.7 -2.7,-1.4 -5.2,-2 -2.4,-0.6 -4.3,-1.1 -5.6,-1.6 -1.3,-0.5 -2.4,-1.1 -3.4,-1.9 -2,-1.5 -3,-3.8 -3,-6.9 0,-3.1 1.1,-5.5 3.4,-7.1 2.2,-1.7 5,-2.5 8.3,-2.5 2.1,0 4.2,0.4 6.3,1 2.1,0.7 3.9,1.7 5.4,3 l -3,4.2 c -1,-0.9 -2.3,-1.6 -4,-2.2 -1.5,-0.5 -3.2,-0.8 -4.8,-0.8 z"
               id="path49150"
               class="MsftOfcThm_Background1_Fill_v2"
               fill="#FFFFFF"
               style="fill:#ffffff" />
          </g>
          <g
             id="g49164"
             style="fill:#ffffff"
             transform="matrix(0.82491299,0,0,0.82491299,-81.283207,106.5697)">
            <path
               d="m 279.2,243.2 h 18 v 39.5 h 24.2 v 14 h -42.2 z"
               id="path49154"
               class="MsftOfcThm_Background1_Fill_v2"
               fill="#FFFFFF"
               style="fill:#ffffff" />
            <path
               d="m 366.5,287.4 h -20.3 l -3.6,9.3 h -18.4 l 23.4,-53.5 h 17.7 l 23.4,53.5 H 370 Z m -4.9,-13 -5.2,-13.5 -5.2,13.5 z"
               id="path49156"
               class="MsftOfcThm_Background1_Fill_v2"
               fill="#FFFFFF"
               style="fill:#ffffff" />
            <path
               d="M 400.7,257.2 H 385 v -14 h 49.4 v 14 h -15.7 v 39.5 h -18 z"
               id="path49158"
               class="MsftOfcThm_Background1_Fill_v2"
               fill="#FFFFFF"
               style="fill:#ffffff" />
            <path
               d="m 472.9,287.4 h -20.3 l -3.6,9.3 H 430.6 L 454,243.2 h 17.7 l 23.4,53.5 h -18.7 z m -5,-13 -5.2,-13.5 -5.2,13.5 z"
               id="path49160"
               class="MsftOfcThm_Background1_Fill_v2"
               fill="#FFFFFF"
               style="fill:#ffffff" />
            <path
               d="M 545.8,296.8 545.6,272.4 534,292 h -8 l -11.6,-18.7 v 23.6 H 498 v -53.5 h 14.8 l 17.4,28.5 17,-28.5 H 562 l 0.2,53.5 h -16.4 z"
               id="path49162"
               class="MsftOfcThm_Background1_Fill_v2"
               fill="#FFFFFF"
               style="fill:#ffffff" />
          </g>
        </g>
      </g>
    </g>
  </g>
</svg>
